<svg xmlns="http://www.w3.org/2000/svg" width="512" height="512" viewBox="0 0 512 512" version="1.1"><path d="M 53.611 1.977 C 33.121 7.499, 16.096 21.577, 7.025 40.500 C -0.554 56.309, 0 39.319, 0 256 C -0 472.681, -0.554 455.691, 7.025 471.500 C 15.682 489.558, 30.683 502.555, 50.500 509.165 L 57.500 511.500 256 511.500 L 454.500 511.500 461.500 509.165 C 484.615 501.454, 501.559 484.628, 508.909 462.085 C 510.059 458.557, 511 454.619, 511 453.335 C 511 452.051, 511.450 451, 512 451 C 512.663 451, 512.995 384.927, 512.985 254.750 C 512.975 127.679, 512.628 59.029, 512 60 C 511.236 61.182, 511.027 60.951, 511.015 58.915 C 511.007 57.493, 510.059 53.443, 508.909 49.915 C 502.699 30.867, 489.379 15.596, 471.500 7.025 C 455.682 -0.558, 472.775 -0.007, 255.436 0.060 C 68.762 0.118, 60.208 0.199, 53.611 1.977 M 0.490 256 C 0.490 364.075, 0.607 408.288, 0.750 354.250 C 0.893 300.213, 0.893 211.788, 0.750 157.750 C 0.607 103.713, 0.490 147.925, 0.490 256 M 99.450 155.351 C 92.498 158.506, 88.681 166.722, 90.858 173.846 C 91.651 176.442, 114.110 202.972, 168.450 265.500 C 247.170 356.082, 248.985 358, 256 358 C 263.022 358, 264.846 356.074, 342.627 266.533 C 384.177 218.702, 418.859 178.240, 419.697 176.620 C 420.723 174.635, 421.075 171.921, 420.775 168.304 C 420.409 163.882, 419.735 162.322, 416.950 159.449 C 411.251 153.569, 401.948 152.815, 396.156 157.763 C 395.038 158.718, 363.229 195.050, 325.470 238.500 C 287.710 281.950, 256.449 317.500, 256 317.500 C 255.551 317.500, 224.294 281.950, 186.541 238.500 C 148.787 195.050, 116.559 158.420, 114.921 157.101 C 111.303 154.184, 103.875 153.344, 99.450 155.351" stroke="none" fill="#14afda" fill-rule="evenodd"/></svg>