<svg xmlns="http://www.w3.org/2000/svg" version="1.0" width="400.000000pt" height="400.000000pt" viewBox="0 0 400.000000 400.000000" preserveAspectRatio="xMidYMid meet">

<g transform="translate(0.000000,400.000000) scale(0.100000,-0.100000)" fill="#585858" stroke="none">
<path d="M1627 3755 c-87 -24 -160 -68 -232 -140 -109 -109 -155 -220 -155 -375 0 -47 5 -105 11 -130 43 -187 215 -353 409 -394 72 -15 71 -16 -49 -39 -57 -11 -116 -32 -180 -64 -128 -63 -256 -187 -318 -308 -82 -161 -86 -182 -91 -521 l-4 -302 30 -33 c28 -31 34 -33 113 -39 l84 -5 51 -500 c29 -289 56 -510 63 -523 26 -48 55 -52 411 -52 370 0 388 3 414 62 13 29 87 706 86 791 0 18 -11 39 -29 58 -59 59 -162 28 -175 -52 -5 -29 -66 -623 -66 -642 0 -4 -103 -7 -230 -7 -177 0 -230 3 -230 13 0 63 -102 1002 -110 1017 -18 33 -64 50 -135 50 l-67 0 4 223 c4 213 5 225 31 291 74 187 235 317 430 348 109 17 207 0 312 -52 101 -50 162 -102 220 -190 37 -56 53 -71 82 -79 20 -6 40 -8 46 -4 12 7 27 -16 27 -43 0 -11 14 -48 31 -82 46 -93 106 -139 229 -179 8 -3 -14 -12 -50 -21 -111 -29 -207 -100 -271 -199 -37 -59 -38 -95 -3 -122 41 -32 31 -39 142 87 122 140 311 149 443 21 28 -27 62 -74 77 -106 25 -54 27 -70 30 -215 l4 -158 -45 0 c-49 0 -74 -16 -82 -53 -3 -12 -17 -161 -32 -332 l-28 -310 -137 -3 -136 -3 -6 48 c-3 27 -13 124 -21 216 -16 177 -22 202 -55 212 -22 7 -67 -16 -76 -39 -10 -25 42 -534 55 -550 12 -14 46 -16 236 -16 199 0 224 2 238 18 11 13 21 86 41 307 15 160 29 309 32 332 l6 43 48 0 c78 0 80 5 80 231 0 261 -23 341 -130 461 -57 64 -165 125 -238 135 -41 6 -49 23 -11 23 37 0 116 49 162 100 61 68 87 139 87 240 0 104 -26 173 -91 244 -132 144 -345 135 -464 -21 -19 -24 -36 -50 -38 -56 -3 -7 -12 -2 -22 13 -10 14 -55 62 -100 107 -103 101 -222 165 -355 190 -121 23 -122 24 -50 39 196 41 366 207 410 399 15 63 15 185 0 250 -41 182 -210 353 -390 394 -62 14 -215 12 -273 -4z m256 -211 c84 -30 155 -99 193 -189 28 -65 24 -178 -8 -246 -97 -209 -366 -261 -527 -100 -144 144 -122 384 46 498 89 60 194 73 296 37z m914 -1170 c122 -97 106 -299 -29 -370 -42 -22 -126 -18 -173 9 -134 76 -136 290 -2 372 36 22 51 25 104 23 51 -3 69 -9 100 -34z" fill="#585858"/>
</g>
</svg>