<svg xmlns="http://www.w3.org/2000/svg" version="1.0" width="400.000000pt" height="400.000000pt" viewBox="0 0 400.000000 400.000000" preserveAspectRatio="xMidYMid meet">

<g transform="translate(0.000000,400.000000) scale(0.100000,-0.100000)" fill="#585858" stroke="none">
<path d="M1893 3960 c-337 -61 -560 -396 -488 -734 43 -201 214 -391 403 -447 23 -7 42 -15 42 -19 0 -4 -20 -11 -45 -14 -25 -4 -76 -18 -113 -30 -323 -110 -557 -364 -644 -701 -18 -69 -21 -119 -25 -355 -7 -388 -10 -383 229 -389 81 -2 148 -4 149 -5 0 0 26 -257 58 -571 37 -366 62 -578 71 -591 33 -54 36 -54 474 -54 l406 0 36 33 36 33 59 574 c32 316 58 576 58 577 1 0 68 3 149 5 233 5 232 4 232 335 0 251 -13 372 -54 490 -82 239 -254 442 -469 554 -88 46 -195 85 -262 95 -25 3 -45 10 -45 14 0 4 19 12 43 19 135 40 285 169 350 302 170 346 -7 754 -373 863 -68 20 -207 28 -277 16z m252 -264 c76 -34 117 -68 159 -129 126 -186 64 -429 -136 -538 -60 -33 -68 -34 -168 -34 -100 0 -108 1 -168 34 -75 41 -135 103 -170 179 -23 49 -27 70 -27 152 1 84 4 102 30 155 87 180 304 262 480 181z m60 -1246 c204 -63 364 -198 456 -385 61 -126 73 -184 73 -380 l1 -170 -144 -3 c-158 -3 -187 -12 -209 -69 -6 -16 -34 -262 -62 -548 -28 -286 -53 -539 -56 -562 l-6 -43 -258 0 -258 0 -6 48 c-4 26 -29 274 -56 552 -27 278 -54 522 -60 543 -18 62 -43 71 -209 77 l-146 5 -3 139 c-5 277 55 443 223 611 107 107 243 178 393 205 78 15 248 4 327 -20z" fill="#585858"/>
</g>
</svg>