<svg xmlns="http://www.w3.org/2000/svg" version="1.0" width="400.000000pt" height="400.000000pt" viewBox="0 0 400.000000 400.000000" preserveAspectRatio="xMidYMid meet">

<g transform="translate(0.000000,400.000000) scale(0.100000,-0.100000)" fill="#585858" stroke="none">
<path d="M3049 3679 c-163 -24 -315 -134 -388 -283 -39 -80 -50 -133 -51 -237 0 -151 50 -269 161 -373 64 -61 175 -126 213 -126 39 0 10 -17 -48 -29 -138 -28 -292 -115 -407 -231 l-66 -67 -6 61 c-15 183 -146 323 -334 358 -113 21 -242 -18 -335 -101 -62 -55 -116 -163 -125 -249 l-6 -62 -66 63 c-116 111 -241 180 -388 216 -76 18 -77 19 -48 30 17 6 44 17 60 23 137 52 263 204 300 359 62 263 -95 540 -353 619 -71 22 -206 27 -282 9 -134 -31 -278 -145 -338 -269 -33 -67 -62 -179 -62 -240 0 -61 29 -173 61 -239 56 -114 182 -218 324 -266 15 -5 2 -12 -50 -25 -98 -26 -151 -46 -215 -82 -191 -107 -326 -273 -396 -488 -27 -83 -28 -92 -32 -351 l-4 -267 30 -33 30 -34 131 -4 c125 -3 131 -4 136 -25 2 -11 25 -229 50 -483 25 -254 50 -474 57 -488 24 -53 39 -55 403 -55 358 0 380 3 405 50 8 15 70 559 70 618 0 9 -27 12 -100 12 -95 0 -100 -1 -104 -22 -3 -13 -14 -117 -25 -232 -12 -115 -22 -210 -23 -212 -9 -8 -436 -16 -441 -8 -3 5 -26 223 -52 484 -26 261 -52 488 -58 504 -20 53 -58 66 -189 66 l-118 0 0 128 c0 158 17 242 71 352 83 168 252 296 441 334 96 20 145 20 245 1 192 -36 360 -166 448 -347 l47 -97 91 -3 92 -3 -47 -24 c-116 -59 -216 -163 -275 -286 -49 -105 -63 -184 -63 -378 0 -165 0 -168 25 -192 22 -23 31 -25 124 -25 l99 0 6 -47 c3 -27 19 -187 37 -358 17 -171 35 -322 40 -336 17 -45 42 -49 309 -49 267 0 291 4 309 49 8 20 81 674 81 728 0 10 24 13 100 13 95 0 102 2 126 26 l26 25 -4 202 c-4 187 -6 207 -30 275 -51 143 -154 266 -289 345 l-64 37 100 0 100 0 27 73 c93 243 355 410 618 394 262 -17 473 -175 568 -425 23 -60 26 -85 30 -234 l4 -168 -116 0 c-122 0 -156 -9 -181 -46 -10 -16 -28 -154 -60 -481 -25 -252 -48 -473 -51 -490 l-5 -33 -222 0 -223 0 -18 188 c-10 103 -20 206 -23 230 l-6 42 -101 0 -102 0 28 -278 c33 -339 32 -333 64 -363 l26 -24 346 -3 c330 -2 349 -1 379 17 22 14 35 32 42 58 6 21 29 227 51 458 23 231 43 441 47 468 l6 47 111 1 c136 0 175 12 199 59 16 32 18 58 14 275 -4 202 -8 252 -25 316 -56 208 -178 378 -354 495 -76 51 -214 109 -285 120 -24 3 -43 9 -43 13 0 3 24 15 53 25 243 86 387 364 321 620 -50 193 -215 346 -412 382 -86 15 -94 15 -173 3z m216 -229 c65 -31 121 -90 153 -159 35 -74 37 -183 5 -253 -73 -162 -269 -239 -423 -167 -262 123 -247 494 23 591 70 25 176 20 242 -12z m-2121 -14 c68 -33 139 -110 160 -173 9 -26 16 -79 16 -118 0 -257 -292 -402 -503 -249 -83 60 -127 148 -127 254 0 73 14 119 53 176 91 135 257 180 401 110z m1025 -856 c179 -92 177 -342 -4 -426 -125 -59 -279 -2 -332 123 -19 46 -16 140 6 188 56 121 213 176 330 115z m144 -570 c-9 -33 -19 -60 -24 -60 -13 0 -122 29 -126 34 -3 3 12 10 34 16 21 7 56 24 78 40 22 16 43 29 46 29 4 1 0 -26 -8 -59z m-412 1 l64 -29 -40 -10 c-96 -26 -92 -26 -98 6 -3 16 -9 43 -13 58 -6 25 -5 27 8 17 8 -7 44 -26 79 -42z m312 -232 c81 -27 143 -67 206 -134 92 -97 136 -231 129 -391 l-3 -69 -103 -5 c-87 -4 -106 -8 -118 -24 -18 -26 -19 -31 -54 -386 -16 -168 -33 -322 -36 -343 l-6 -37 -168 0 -168 0 -6 48 c-3 26 -17 160 -31 297 -36 358 -43 407 -60 425 -11 11 -45 16 -118 20 l-102 5 2 115 c1 87 7 130 22 174 52 149 171 263 326 312 66 21 216 17 288 -7z" fill="#585858"/>
</g>
</svg>