<svg xmlns="http://www.w3.org/2000/svg" version="1.0" width="409.000000pt" height="400.000000pt" viewBox="0 0 409.000000 400.000000" preserveAspectRatio="xMidYMid meet">

<g transform="translate(0.000000,400.000000) scale(0.100000,-0.100000)" fill="#585858" stroke="none">
<path d="M1170 2945 l-815 -815 -3 -831 -2 -831 34 -34 c22 -22 44 -34 60 -34 35 0 83 25 96 49 7 13 10 285 10 803 l0 783 740 740 740 740 740 -740 740 -740 0 -777 c0 -537 3 -784 11 -801 13 -28 58 -57 89 -57 28 0 61 17 82 44 16 19 18 80 18 851 l0 830 -817 817 -818 818 -45 0 -45 0 -815 -815z" fill="#585858"/>
<path d="M1272 2274 c-95 -25 -164 -65 -238 -139 -107 -106 -154 -218 -154 -371 0 -45 7 -104 16 -135 56 -189 213 -338 395 -372 61 -12 79 -27 33 -27 -47 0 -148 -31 -219 -68 -94 -49 -208 -163 -257 -257 -58 -113 -72 -173 -72 -318 l-1 -129 33 -29 c53 -48 122 -34 154 31 13 26 18 60 18 131 0 146 41 243 140 333 139 125 363 141 516 36 58 -41 119 -112 151 -179 23 -48 27 -73 32 -182 7 -136 19 -171 67 -189 43 -17 72 -11 106 19 32 29 33 31 36 128 4 127 -16 224 -69 333 -84 169 -262 306 -438 333 -39 6 -71 14 -71 17 0 3 27 10 59 17 181 34 340 184 395 372 9 31 16 90 16 135 0 153 -47 265 -154 371 -76 75 -144 114 -242 140 -72 19 -182 18 -252 -1z m240 -210 c64 -21 140 -91 175 -162 38 -77 39 -191 3 -267 -118 -246 -462 -246 -580 0 -33 69 -34 189 -4 256 74 160 234 228 406 173z" fill="#585858"/>
<path d="M2536 2274 c-183 -44 -337 -202 -382 -390 -30 -128 -4 -286 66 -394 75 -116 231 -223 348 -237 54 -6 62 -23 12 -23 -84 0 -248 -77 -342 -159 -83 -73 -46 -191 60 -191 19 0 48 16 88 48 83 66 152 94 247 100 179 11 330 -75 409 -233 33 -66 48 -138 48 -236 0 -50 5 -90 14 -108 36 -69 146 -64 176 9 19 47 8 258 -18 340 -72 222 -281 401 -497 426 -30 4 -55 10 -55 13 0 4 28 12 62 18 174 33 335 177 387 347 44 144 35 261 -29 393 -109 222 -352 336 -594 277z m261 -219 c61 -28 123 -89 155 -153 19 -39 23 -63 23 -137 0 -81 -3 -95 -29 -143 -34 -60 -85 -111 -148 -144 -62 -33 -202 -33 -270 1 -239 117 -242 451 -7 572 86 44 184 45 276 4z" fill="#585858"/>
</g>
</svg>