<svg xmlns="http://www.w3.org/2000/svg" width="512" height="512" viewBox="0 0 512 512" version="1.1"><path d="M 53.611 1.977 C 33.121 7.499, 16.096 21.577, 7.025 40.500 C -0.554 56.309, 0 39.319, 0 256 C -0 472.681, -0.554 455.691, 7.025 471.500 C 15.682 489.558, 30.683 502.555, 50.500 509.165 L 57.500 511.500 256 511.500 L 454.500 511.500 461.500 509.165 C 484.615 501.454, 501.559 484.628, 508.909 462.085 C 510.059 458.557, 511 454.619, 511 453.335 C 511 452.051, 511.450 451, 512 451 C 512.663 451, 512.995 384.927, 512.985 254.750 C 512.975 127.679, 512.628 59.029, 512 60 C 511.236 61.182, 511.027 60.951, 511.015 58.915 C 511.007 57.493, 510.059 53.443, 508.909 49.915 C 502.699 30.867, 489.379 15.596, 471.500 7.025 C 455.682 -0.558, 472.775 -0.007, 255.436 0.060 C 68.762 0.118, 60.208 0.199, 53.611 1.977 M 0.490 256 C 0.490 364.075, 0.607 408.288, 0.750 354.250 C 0.893 300.213, 0.893 211.788, 0.750 157.750 C 0.607 103.713, 0.490 147.925, 0.490 256 M 249.175 156.250 C 245.908 157.980, 227.271 178.825, 168.533 246.445 C 86.465 340.923, 88.769 337.957, 91.046 346.204 C 92.476 351.384, 95.419 354.613, 100.468 356.541 C 105.729 358.550, 110.367 357.965, 114.869 354.726 C 116.569 353.502, 148.837 316.950, 186.574 273.500 C 224.312 230.050, 255.555 194.500, 256.004 194.500 C 256.452 194.500, 287.893 230.275, 325.872 274 C 396.898 355.770, 399.025 358, 406 358 C 410.188 358, 417.269 353.822, 419.416 350.085 C 421.759 346.004, 421.929 338.059, 419.744 334.751 C 418.927 333.513, 384.241 293.350, 342.666 245.500 C 264.858 155.948, 263.013 154, 256 154 C 254.583 154, 251.512 155.012, 249.175 156.250" stroke="none" fill="#14afda" fill-rule="evenodd"/></svg>